<?xml version="1.0" standalone="no"?><!DOCTYPE svg PUBLIC "-//W3C//DTD SVG 1.1//EN" "http://www.w3.org/Graphics/SVG/1.1/DTD/svg11.dtd"><svg t="1718853416244" class="icon" viewBox="0 0 1024 1024" version="1.1" xmlns="http://www.w3.org/2000/svg" p-id="6252" width="128" height="128" xmlns:xlink="http://www.w3.org/1999/xlink"><path d="M768 128H256a128 128 0 0 0-128 128v512a128 128 0 0 0 128 128h512a128 128 0 0 0 128-128V256a128 128 0 0 0-128-128z" fill="#50E6FF" p-id="6253"></path><path d="M768 853.333333H256a85.333333 85.333333 0 0 1-85.333333-85.333333V256a85.333333 85.333333 0 0 1 85.333333-85.333333h512a85.333333 85.333333 0 0 1 85.333333 85.333333v512a85.333333 85.333333 0 0 1-85.333333 85.333333z" fill="#092347" p-id="6254"></path><path d="M309.482667 327.936c0-2.261333 1.642667-4.16 3.882666-4.416 8.533333-0.938667 32.341333-2.88 83.136-2.88 76.544 0 130.154667 30.357333 130.154667 113.429333 0 74.922667-51.008 118.890667-133.312 118.890667h-25.941333v125.482667c0 2.090667-1.706667 3.797333-3.797334 3.797333h-50.304a3.797333 3.797333 0 0 1-3.797333-3.797333v-350.506667z m57.92 172.266667s25.322667 0.170667 31.04 0.170666c46.997333 0 68.373333-27.861333 68.373333-65.194666 0-34.965333-20.778667-62.229333-64.213333-62.229334-17.898667 0-35.178667 1.024-35.178667 1.024v126.229334zM557.994667 618.026667c0-2.026667 2.197333-3.285333 3.882666-2.176 10.752 7.189333 32.576 19.498667 66.368 19.498666 22.058667 0 36.010667-9.493333 36.010667-24.981333 0-17.152-23.573333-29.589333-43.029333-40.149333-19.349333-10.496-62.805333-27.349333-62.805334-81.621334 0-48.106667 38.442667-77.12 90.794667-77.12 20.053333 0 42.176 3.114667 57.109333 8.554667a6.186667 6.186667 0 0 1 3.946667 5.909333v48.874667c0 2.005333-2.112 3.306667-3.797333 2.197333-9.365333-6.122667-30.016-15.488-58.432-15.488-23.658667 0-34.069333 11.52-34.069334 23.253334 0 20.565333 27.392 29.162667 51.968 43.584 38.336 21.333333 56.106667 42.176 56.106667 74.837333 0 53.418667-39.829333 83.413333-93.781333 83.413333-27.861333 0-54.058667-6.08-67.456-14.229333a6.101333 6.101333 0 0 1-2.794667-5.354667l-0.021333-49.002666z" fill="#FFFFFF" p-id="6255"></path></svg>